<svg id="Layer_1" data-name="Layer 1" xmlns="http://www.w3.org/2000/svg" viewBox="0 0 254.27 60.72"><defs><style>.cls-1{fill:#fff;stroke:#353043;stroke-miterlimit:10;}.cls-2{fill:#ab1919;}</style></defs><path class="cls-1" d="M1.1,50.42c.1-2.15.2-4.9.2-7.25V15.82H7.85v12.6H8a5.84,5.84,0,0,1,5.1-2.85c4.75,0,6.9,5.35,6.9,12,0,8.55-3.4,13.3-7.95,13.3-2.05,0-3.5-.85-4.8-3.3H7.05l-.35,2.9Zm6.75-8.75a4.36,4.36,0,0,0,.25,1.55c.55,1.75,1.45,2.25,2.25,2.25,2.2,0,3.1-2.75,3.1-7.45,0-4.2-.95-7-3.15-7-1,0-1.85,1-2.2,2.25a5,5,0,0,0-.25,1.5Z" transform="translate(-0.57 -1.31)"/><path class="cls-1" d="M23.64,33.32c0-2.45-.1-5.1-.19-7.35h5.7l.35,3.55h.15c1.1-2.6,3.05-3.95,4.85-3.95a5.52,5.52,0,0,1,1.4.1v6.5a5.93,5.93,0,0,0-1.4-.1c-1.4,0-3.25,1-4,3.5A9.93,9.93,0,0,0,30.25,38v12.4H23.64Z" transform="translate(-0.57 -1.31)"/><path class="cls-1" d="M43.64,40.52c.11,3.8,2.31,5.2,5.21,5.2a14.43,14.43,0,0,0,4.65-.8l.9,4.7a20.29,20.29,0,0,1-6.76,1.1c-6.65,0-10.3-4.4-10.3-12,0-8.2,4.25-13.1,9.8-13.1,5.26,0,8.31,4.15,8.31,11.55a17.38,17.38,0,0,1-.2,3.4Zm5.86-4.6c0-3.15-.8-5.6-2.75-5.6-2.15,0-3,3.15-3.06,5.6Z" transform="translate(-0.57 -1.31)"/><path class="cls-1" d="M63.7,26l1.85,10.9c.34,2.2.7,4.4,1,6.85h.1c.3-2.5.6-4.55,1-6.85L69.55,26H76L69.45,50.42H63.39L56.74,26Z" transform="translate(-0.57 -1.31)"/><path class="cls-1" d="M85.09,19.47A3.33,3.33,0,0,1,81.64,23a3.29,3.29,0,0,1-3.25-3.55,3.36,3.36,0,1,1,6.7,0Zm-6.55,31V26h6.55V50.42Z" transform="translate(-0.57 -1.31)"/><path class="cls-1" d="M89.49,44.52a9.15,9.15,0,0,0,4.4,1.3c1.7,0,2.65-.75,2.65-2.2,0-1.25-.7-2-2.85-3.3-4-2.25-5-4.8-5-7,0-4.4,3.15-7.7,8.05-7.7a11.5,11.5,0,0,1,4.95,1.1l-1.15,4.8a6.79,6.79,0,0,0-3.4-1,2.16,2.16,0,0,0-2.45,2.1c0,1.1.55,1.7,2.85,3,3.6,2.05,5,4.6,5,7.4,0,5-3.6,7.7-8.65,7.7a10.77,10.77,0,0,1-5.6-1.4Z" transform="translate(-0.57 -1.31)"/><path class="cls-2" d="M110.74,16.72v19.4c0,5.8,2.2,8.75,6.1,8.75s6.21-2.8,6.21-8.75V16.72h7.59v18.9c0,10.4-5.25,15.35-14,15.35-8.5,0-13.5-4.7-13.5-15.45V16.72Z" transform="translate(-0.57 -1.31)"/><path class="cls-2" d="M131.49,17.17a67,67,0,0,1,10.15-.7c5,0,8.5.75,10.9,2.65a8.56,8.56,0,0,1,3.1,7.05,8.94,8.94,0,0,1-5.95,8.3v.15c2.35,1,3.65,3.2,4.5,6.3,1.05,3.8,2.1,8.2,2.75,9.5h-7.8c-.55-1-1.35-3.7-2.35-7.85s-2.35-5.35-5.45-5.4H139V50.42h-7.55ZM139,31.67h3c3.8,0,6.05-1.9,6.05-4.85,0-3.1-2.1-4.65-5.6-4.7a19,19,0,0,0-3.45.25Z" transform="translate(-0.57 -1.31)"/><path class="cls-2" d="M157.39,16.72H165V44h13.4v6.4H157.39Z" transform="translate(-0.57 -1.31)"/><path class="cls-2" d="M248.11,1.31c-14.11,0-33.24,17.6-35.84,28.56a6.46,6.46,0,0,0-2.07-2.63c1.26-4.28,7.36-9.81,8.35-14.25.11-.49-.89-.94-1-.45-1.32,5.28-6.48,9.94-7.59,14.55a1.9,1.9,0,0,0-.75-.27h-.08a1.85,1.85,0,0,0-.75.27c-1.11-4.61-6.27-9.27-7.59-14.55-.12-.5-1.12,0-1,.45,1,4.44,7.09,10,8.34,14.25a6.54,6.54,0,0,0-2.06,2.63c-2.6-11-21.73-28.56-35.84-28.56-4.67,0-6.73.81-6.73,3.32,0,7.28,11.53,29,15.7,31.35a8.9,8.9,0,0,0,5.92.82,11.9,11.9,0,0,0-4.29,9.51C180.81,56.69,188,62,195.1,62c7.64,0,11.22-6.59,11.22-22.9A17.7,17.7,0,0,1,208,46.76c0,6.22-1.32,14.12,1.09,14.28h.08c2.41-.16,1.09-8.06,1.09-14.28A17.7,17.7,0,0,1,212,39.13c0,16.31,3.58,22.9,11.23,22.9,7.07,0,14.28-5.35,14.28-15.72a11.87,11.87,0,0,0-4.29-9.51,8.9,8.9,0,0,0,5.92-.82c4.17-2.32,15.7-24.07,15.7-31.35C254.84,2.12,252.78,1.31,248.11,1.31Z" transform="translate(-0.57 -1.31)"/></svg>