<svg id="Layer_1" data-name="Layer 1" xmlns="http://www.w3.org/2000/svg" viewBox="0 0 246.99 36.05"><defs><style>.cls-1{fill:#fff;}</style></defs><path class="cls-1" d="M249,16.16c-8,0-18.89,10-20.37,16.23a3.7,3.7,0,0,0-1.17-1.5c.72-2.43,4.18-5.57,4.75-8.1.06-.27-.51-.53-.58-.25-.75,3-3.68,5.65-4.31,8.26a1.23,1.23,0,0,0-.43-.15h0a1.06,1.06,0,0,0-.43.15c-.63-2.61-3.56-5.26-4.31-8.26-.07-.28-.64,0-.58.25.57,2.53,4,5.67,4.75,8.1a3.7,3.7,0,0,0-1.17,1.5c-1.48-6.23-12.35-16.23-20.37-16.23-2.65,0-3.82.46-3.82,1.89,0,4.13,6.55,16.49,8.92,17.81a5.08,5.08,0,0,0,3.36.46,6.77,6.77,0,0,0-2.43,5.41c0,5.89,4.09,8.93,8.11,8.93,4.34,0,6.38-3.75,6.38-13a10.13,10.13,0,0,1,1,4.34c0,3.54-.75,8,.62,8.11h0c1.37-.09.62-4.57.62-8.11a10.13,10.13,0,0,1,1-4.34c0,9.27,2,13,6.38,13,4,0,8.12-3,8.12-8.93a6.77,6.77,0,0,0-2.44-5.41,5.08,5.08,0,0,0,3.36-.46c2.37-1.32,8.92-13.68,8.92-17.81C252.82,16.62,251.65,16.16,249,16.16Z" transform="translate(-5.83 -14.61)"/><path class="cls-1" d="M137.15,16.41v19.4c0,5.8,2.19,8.75,6.1,8.75s6.2-2.8,6.2-8.75V16.41h7.6v18.9c0,10.4-5.25,15.35-14.05,15.35-8.5,0-13.51-4.7-13.51-15.45V16.41Z" transform="translate(-5.83 -14.61)"/><path class="cls-1" d="M159.89,16.86a67,67,0,0,1,10.15-.7c5,0,8.5.75,10.91,2.65a8.56,8.56,0,0,1,3.1,7.05,8.94,8.94,0,0,1-6,8.3v.15c2.36.95,3.66,3.2,4.51,6.3,1.05,3.8,2.1,8.2,2.75,9.5h-7.81a43.31,43.31,0,0,1-2.34-7.85c-.91-4.2-2.36-5.35-5.46-5.4h-2.3V50.11h-7.55Zm7.55,14.5h3c3.81,0,6.06-1.9,6.06-4.85,0-3.1-2.11-4.65-5.61-4.7a19,19,0,0,0-3.45.25Z" transform="translate(-5.83 -14.61)"/><path class="cls-1" d="M185.79,16.41h7.65v27.3h13.4v6.4H185.79Z" transform="translate(-5.83 -14.61)"/><path class="cls-1" d="M5.83,50.11c.1-1.6.2-4.55.2-7.3V14.61h7.6v14h.1a8.61,8.61,0,0,1,7.4-3.45c5.85,0,10.15,4.85,10.1,12.35,0,8.8-5.6,13.2-11.2,13.2a8.11,8.11,0,0,1-7.35-3.95h-.1l-.3,3.4Zm7.8-10.4a5.58,5.58,0,0,0,.15,1.35,4.6,4.6,0,0,0,4.45,3.6c3.25,0,5.25-2.5,5.25-6.9,0-3.8-1.7-6.8-5.25-6.8a4.71,4.71,0,0,0-4.45,3.75,6.33,6.33,0,0,0-.15,1.4Z" transform="translate(-5.83 -14.61)"/><path class="cls-1" d="M33.43,33.71c0-3.6-.1-5.95-.2-8h6.55l.25,4.5h.2a7.18,7.18,0,0,1,6.6-5.05,7.83,7.83,0,0,1,1.6.1v7.15a10.89,10.89,0,0,0-2-.2c-2.8,0-4.7,1.5-5.2,3.85a9,9,0,0,0-.15,1.7v12.4h-7.6Z" transform="translate(-5.83 -14.61)"/><path class="cls-1" d="M55.38,40.31c.25,3.15,3.35,4.65,6.9,4.65A21.53,21.53,0,0,0,69,44l1,5.15a24.13,24.13,0,0,1-8.85,1.5c-8.3,0-13-4.8-13-12.45,0-6.2,3.85-13,12.35-13,7.9,0,10.9,6.15,10.9,12.2a18.05,18.05,0,0,1-.25,3Zm8.95-5.2c0-1.85-.8-4.95-4.3-4.95-3.2,0-4.5,2.9-4.7,4.95Z" transform="translate(-5.83 -14.61)"/><path class="cls-1" d="M78.78,25.66,82.08,37a56.52,56.52,0,0,1,1.4,6h.15c.4-2,.8-3.85,1.35-6l3.15-11.35h8L87,50.11h-7.6l-8.9-24.45Z" transform="translate(-5.83 -14.61)"/><path class="cls-1" d="M105,18.86a3.82,3.82,0,0,1-4.1,3.8,3.72,3.72,0,0,1-3.95-3.8,3.72,3.72,0,0,1,4-3.85A3.81,3.81,0,0,1,105,18.86ZM97.13,50.11V25.66h7.6V50.11Z" transform="translate(-5.83 -14.61)"/><path class="cls-1" d="M108.28,43.46a14.86,14.86,0,0,0,6.55,1.85c2.3,0,3.25-.8,3.25-2.05s-.75-1.85-3.6-2.8c-5-1.7-7-4.45-7-7.35,0-4.55,3.9-8,10-8a16.4,16.4,0,0,1,6.9,1.4L123,31.76a12,12,0,0,0-5.3-1.4c-1.85,0-2.9.75-2.9,2s1,1.75,4,2.8c4.65,1.6,6.6,4,6.65,7.55,0,4.55-3.6,7.9-10.6,7.9a17.31,17.31,0,0,1-7.9-1.7Z" transform="translate(-5.83 -14.61)"/></svg>