<svg id="Layer_1" data-name="Layer 1" xmlns="http://www.w3.org/2000/svg" viewBox="0 0 252.31 44.9"><defs><style>.cls-1{fill:#fff;stroke:#353043;stroke-miterlimit:10;}.cls-2{fill:#353043;}</style></defs><path class="cls-1" d="M72,49.56c.1-2.15.2-4.9.2-7.25V15h6.55v12.6h.1A5.84,5.84,0,0,1,84,24.71c4.75,0,6.9,5.35,6.9,11.95,0,8.55-3.4,13.3-7.95,13.3-2.05,0-3.5-.85-4.8-3.3H78l-.35,2.9Zm6.75-8.75A4.36,4.36,0,0,0,79,42.36c.55,1.75,1.45,2.25,2.25,2.25,2.2,0,3.1-2.75,3.1-7.45,0-4.2-.95-6.95-3.15-6.95-1,0-1.85,1.05-2.2,2.25a5,5,0,0,0-.25,1.5Z" transform="translate(-1.03 -10.08)"/><path class="cls-1" d="M94.54,32.46c0-2.45-.1-5.1-.19-7.35h5.7l.35,3.55h.15c1.1-2.6,3-3.95,4.85-3.95a5.52,5.52,0,0,1,1.4.1v6.5a5.93,5.93,0,0,0-1.4-.1c-1.4,0-3.25.95-4,3.5a9.93,9.93,0,0,0-.25,2.45v12.4H94.54Z" transform="translate(-1.03 -10.08)"/><path class="cls-1" d="M114.54,39.66c.1,3.8,2.31,5.2,5.21,5.2a14.43,14.43,0,0,0,4.65-.8l.9,4.7a20.29,20.29,0,0,1-6.76,1.1c-6.65,0-10.3-4.4-10.3-12,0-8.2,4.25-13.1,9.8-13.1,5.26,0,8.31,4.15,8.31,11.55a17.38,17.38,0,0,1-.2,3.4Zm5.85-4.6c0-3.15-.79-5.6-2.75-5.6-2.14,0-3,3.15-3,5.6Z" transform="translate(-1.03 -10.08)"/><path class="cls-1" d="M134.6,25.11,136.45,36c.34,2.2.69,4.4,1.05,6.85h.1c.29-2.5.6-4.55,1-6.85l1.9-10.9h6.45l-6.55,24.45h-6.06l-6.65-24.45Z" transform="translate(-1.03 -10.08)"/><path class="cls-1" d="M156,18.61a3.33,3.33,0,0,1-3.45,3.55,3.29,3.29,0,0,1-3.25-3.55,3.36,3.36,0,1,1,6.7,0Zm-6.55,31V25.11H156V49.56Z" transform="translate(-1.03 -10.08)"/><path class="cls-1" d="M160.39,43.66a9.15,9.15,0,0,0,4.4,1.3c1.7,0,2.65-.75,2.65-2.2,0-1.25-.7-2-2.85-3.3-4-2.25-5-4.8-5-7.05,0-4.4,3.15-7.7,8.05-7.7a11.5,11.5,0,0,1,4.95,1.1l-1.15,4.8a6.79,6.79,0,0,0-3.4-1,2.16,2.16,0,0,0-2.45,2.1c0,1.1.55,1.7,2.85,3,3.6,2.05,4.95,4.6,4.95,7.4,0,5-3.6,7.7-8.65,7.7a10.77,10.77,0,0,1-5.6-1.4Z" transform="translate(-1.03 -10.08)"/><path class="cls-2" d="M185.64,15.86v19.4c0,5.8,2.2,8.75,6.1,8.75s6.21-2.8,6.21-8.75V15.86h7.59v18.9c0,10.4-5.25,15.35-14,15.35-8.5,0-13.5-4.7-13.5-15.45V15.86Z" transform="translate(-1.03 -10.08)"/><path class="cls-2" d="M206.39,16.31a67,67,0,0,1,10.15-.7c5,0,8.5.75,10.9,2.65a8.56,8.56,0,0,1,3.1,7,8.94,8.94,0,0,1-5.95,8.3v.15c2.35,1,3.65,3.2,4.5,6.3,1,3.8,2.1,8.2,2.75,9.5H224c-.55-1-1.35-3.7-2.35-7.85s-2.35-5.35-5.45-5.4h-2.3V49.56h-7.55Zm7.55,14.5h3c3.8,0,6.05-1.9,6.05-4.85,0-3.1-2.1-4.65-5.6-4.7a19,19,0,0,0-3.45.25Z" transform="translate(-1.03 -10.08)"/><path class="cls-2" d="M232.29,15.86h7.65v27.3h13.4v6.4H232.29Z" transform="translate(-1.03 -10.08)"/><path class="cls-2" d="M63.6,10.08c-10.43,0-24.57,13-26.5,21.12a4.79,4.79,0,0,0-1.52-1.94C36.51,26.09,41,22,41.75,18.72c.08-.36-.66-.7-.75-.33-1,3.9-4.79,7.35-5.61,10.75a1.39,1.39,0,0,0-.55-.19h-.06a1.48,1.48,0,0,0-.56.19c-.82-3.4-4.63-6.85-5.61-10.75-.09-.37-.83,0-.75.33C28.6,22,33.1,26.09,34,29.26a4.79,4.79,0,0,0-1.52,1.94C30.59,23.1,16.44,10.08,6,10.08c-3.45,0-5,.6-5,2.46C1,17.92,9.56,34,12.65,35.72a6.54,6.54,0,0,0,4.37.6,8.79,8.79,0,0,0-3.17,7C13.85,51,19.18,55,24.41,55c5.65,0,8.3-4.88,8.3-16.94A13.15,13.15,0,0,1,34,43.69c0,4.6-1,10.44.81,10.56h.06c1.78-.13.8-6,.8-10.56A13.14,13.14,0,0,1,36.91,38C36.91,50.1,39.55,55,45.21,55,50.44,55,55.77,51,55.77,43.36a8.82,8.82,0,0,0-3.17-7,6.55,6.55,0,0,0,4.37-.6C60.05,34,68.58,17.92,68.58,12.54,68.58,10.68,67.06,10.08,63.6,10.08Z" transform="translate(-1.03 -10.08)"/></svg>