<svg id="Layer_1" data-name="Layer 1" xmlns="http://www.w3.org/2000/svg" viewBox="0 0 249.84 54.35"><defs><style>.cls-1,.cls-2,.cls-3{fill:#fff;}.cls-2,.cls-3{font-size:50px;font-family:MyriadPro-Bold, Myriad Pro;font-weight:700;}.cls-2{letter-spacing:-0.07em;}.cls-3{letter-spacing:-0.05em;}.cls-4{letter-spacing:-0.06em;}.cls-5{letter-spacing:-0.06em;}</style></defs><path class="cls-1" d="M249,16.16c-8,0-18.89,10-20.37,16.23a3.7,3.7,0,0,0-1.17-1.5c.72-2.43,4.18-5.57,4.75-8.1.06-.27-.51-.53-.58-.25-.75,3-3.68,5.65-4.31,8.26a1.23,1.23,0,0,0-.43-.15h0a1.06,1.06,0,0,0-.43.15c-.63-2.61-3.56-5.26-4.31-8.26-.07-.28-.64,0-.58.25.57,2.53,4,5.67,4.75,8.1a3.7,3.7,0,0,0-1.17,1.5c-1.48-6.23-12.35-16.23-20.37-16.23-2.65,0-3.82.46-3.82,1.89,0,4.13,6.55,16.49,8.92,17.81a5.08,5.08,0,0,0,3.36.46,6.77,6.77,0,0,0-2.43,5.41c0,5.89,4.09,8.93,8.11,8.93,4.34,0,6.38-3.75,6.38-13a10.13,10.13,0,0,1,1,4.34c0,3.54-.75,8,.62,8.11h0c1.37-.09.62-4.57.62-8.11a10.13,10.13,0,0,1,1-4.34c0,9.27,2,13,6.38,13,4,0,8.12-3,8.12-8.93a6.77,6.77,0,0,0-2.44-5.41,5.08,5.08,0,0,0,3.36-.46c2.37-1.32,8.92-13.68,8.92-17.81C252.82,16.62,251.65,16.16,249,16.16Z" transform="translate(-2.98 -8.26)"/><text class="cls-2" transform="translate(123.26 41.85)">URL</text><text class="cls-3" transform="translate(0 41.85)">b<tspan class="cls-4" x="27.4" y="0">r</tspan><tspan class="cls-5" x="43.5" y="0">e</tspan><tspan x="67.1" y="0">vis</tspan></text></svg>