<svg id="Capa_1" data-name="Capa 1" xmlns="http://www.w3.org/2000/svg" viewBox="0 0 1697.05 1697.04"><defs><style>.cls-1{fill:#7CE4E4;}.cls-2{fill:#1d1d1b;}.cls-3{fill:#fff;}.cls-4{fill:#ab1919;}</style></defs><path class="cls-1" d="M1060.66,1909.18h0c-468.63,0-848.53-379.89-848.53-848.52S592,212.14,1060.66,212.14,1909.18,592,1909.18,1060.66,1529.28,1909.18,1060.66,1909.18Z" transform="translate(-212.13 -212.14)"/><path class="cls-2" d="M1434.25,969.26a284.76,284.76,0,0,0,9.56-85.45c-1-23.32-4.49-47.43-14-68.94-8.5-19.33-23.52-34.83-43.17-42.81s-41.64-7.56-62-2.84-40.31,14-53.92,30.08c-15.8,18.71-21.12,43.4-21.52,67.39-.82,49.37,18.89,96.66,50.43,134,7.75,9.18,16.3,17.83,26.15,24.76,6.65,4.68,14.72,9,23.06,8.86,22.12-.33,38.47-24.42,48.35-41.14,4.29-7.26-7-13.85-11.29-6.6-5.76,9.74-12.25,19.21-20.83,26.7-4.31,3.76-9.56,7.22-15.34,8a13.91,13.91,0,0,1-4.84-.54,36.3,36.3,0,0,1-9.69-4.63c-7.37-4.68-13.77-10.83-19.72-17.18-29.82-31.8-49.37-73-52.72-116.67-1.69-21.93,0-46.34,11.57-65.63,9.51-15.88,25.4-26,42.73-31.65,17.92-5.82,37.68-8.3,56.14-3.53a65.74,65.74,0,0,1,40.58,30.81c11.66,19.93,15.36,44.75,16.68,67.45a272.1,272.1,0,0,1-8.89,86.15C1419.45,973.92,1432.06,977.39,1434.25,969.26Z" transform="translate(-212.13 -212.14)"/><path class="cls-2" d="M1557.43,1119.23c-17.16-25.2-45.36-36.5-71.64-49.58-13.06-6.5-26.18-13.68-36-24.66a71.07,71.07,0,0,1-16.12-32.69c-3-14.14-2.23-28.94.61-43,1.65-8.22-11-11.74-12.61-3.48-5.29,26.26-4.09,55,10.88,78,17.18,26.47,47.6,36.72,74.33,50.62,15,7.78,29.64,17.23,39.3,31.39C1550.86,1132.75,1562.19,1126.21,1557.43,1119.23Z" transform="translate(-212.13 -212.14)"/><path class="cls-2" d="M1197.92,1153.87c14.11-23.35,34.7-40.44,58.56-53.25,12-6.46,25.17-10.95,36.61-18.43,10.67-7,20.27-15.92,26.82-26.94,7.77-13.07,10-27.77,7.78-42.68-.52-3.52-4.93-5.39-8-4.57-3.76,1-5.08,4.57-4.57,8,3.73,25.2-12.61,45.82-33.4,57.81-11.47,6.62-24.12,11.11-35.7,17.62a182.4,182.4,0,0,0-31,21.64,144.49,144.49,0,0,0-28.4,34.16C1182.26,1154.49,1193.57,1161.07,1197.92,1153.87Z" transform="translate(-212.13 -212.14)"/><path class="cls-2" d="M1544,1909.18h159.56c-2.16-54.28-16.35-119-53.85-191.36-109.4-211.13-98.82,98.83-98.82,98.83Z" transform="translate(-212.13 -212.14)"/><path class="cls-1" d="M1094.06,1690c8,2,16.37.8,24.35-1.15,39.31-9.56,72.59-34.92,104.61-59.66.87,23.07,1.74,46.19,4.92,69.06,3.54,25.63,10,51,10.37,76.86,0,2.5,0,5.14-1.31,7.28-1.4,2.3-4,3.58-6.47,4.61-14.69,6-30.94,6.86-46.81,6.79-18.39-.08-37.68-1.59-53.19-11.45-7.59-4.82-31.57.13-37.76-6.38-4.14-4.35-31.38-11.16-34.21-16.46" transform="translate(-212.13 -212.14)"/><path class="cls-2" d="M1092.32,1696.26c12.66,2.89,25.52,0,37.67-3.89a197.25,197.25,0,0,0,34.21-14.77c22.16-12,42.22-27.44,62.11-42.8l-9.83-5.65c1,27.48,2.41,54.86,6.87,82,2.15,13.14,4.77,26.21,6.51,39.41.86,6.55,1.49,13.15,1.77,19.75.09,2.16,1.07,6.79-.28,8.71-1.23,1.74-4.8,2.49-6.68,3.13-12.06,4.11-24.77,5-37.42,5-11.77.07-23.7-.22-35.18-3a61.25,61.25,0,0,1-15.38-5.82c-4-2.26-7.32-3.82-11.94-4.43-8-1-16.4.19-24.28-1.53-3.18-.69-3.72-2-6.71-3.74a77.74,77.74,0,0,0-11-4.72c-3.93-1.5-7.91-2.9-11.79-4.53a48.69,48.69,0,0,1-4.91-2.31c-.57-.31-1.12-.69-1.69-1s-.67-.78-.14.05c-4.49-7.09-15.81-.53-11.29,6.6,4,6.37,13.39,8.88,20,11.39,3.51,1.33,7.07,2.57,10.53,4,4.08,1.73,4,2.31,7.16,4.32,7.21,4.58,17.23,3.66,25.4,3.89,3.42.1,7.46-.11,10.71,1.24,4.84,2,10.08,5.48,15.53,7.32,12.71,4.3,26.49,5.19,39.81,5.33s27.14-.36,40.23-3.73c5.44-1.4,11.71-3.16,16.29-6.56,5.61-4.19,6.41-10.25,6.25-16.81-.35-14.45-2.56-28.82-5-43-2.78-16.35-5.77-32.6-7.33-49.13-1.63-17.24-2.28-34.56-2.94-51.86-.16-4.4-5.65-8.88-9.84-5.65-18.55,14.34-37.23,28.69-57.64,40.32a187.35,187.35,0,0,1-30.73,14.32c-11,3.87-23.81,8.18-35.55,5.51C1087.6,1681.78,1084.1,1694.39,1092.32,1696.26Z" transform="translate(-212.13 -212.14)"/><path class="cls-3" d="M1663.67,1311c-6.29-30.14-14.46-59.88-25.63-88.56-14.74-37.83-32.51-86.85-64.72-113.39-24.32-20-39.59,4.36-55.93,24-22.72,27.39-40.93,58.35-65.53,84.21a234.58,234.58,0,0,1-83.51,56.33c-17.64,7-36.53,11.82-55.45,10.46-82.71-6-87.46-99.72-112.26-158.32-17.91,14-26.65,47.46-33.63,68.6a942.57,942.57,0,0,0-42,193.24c-1.28,11.71-2.32,23.75.75,35.13,9.73,36.11,51.14,58.14,67.86,91.56,20.4,40.78,41.73,108.34,18.19,146.26-38.84,62.59-76.21,98.26-63.38,148.67,7.13,28,101.12,63.74,124.48,80.73,17.13,12.46,113.12-88.36,134.29-87.68,86.27,2.79,137.41-30.38,273,36.37,71.89,35.38-17.91-137.85-5.82-214.29,17.43-110.09,15.39-140.92-.1-251.3C1671.38,1352.33,1668,1331.57,1663.67,1311Z" transform="translate(-212.13 -212.14)"/><path class="cls-2" d="M1666.88,1909.18c-5.77-23.51-13.49-49.1-23.36-77-61.86-174.88-200.39-440.66-249.85-462.95-124.46-56.1-178.93,34.84-178.93,34.84-25.62,58.87,50.17,382.22,81,505.11Z" transform="translate(-212.13 -212.14)"/><path class="cls-2" d="M1481.67,1909.18h13.2c-3.26-21.68-7.35-43.24-12.68-64.52-2-8.16-14.66-4.71-12.61,3.47C1474.64,1868.35,1478.54,1888.72,1481.67,1909.18Z" transform="translate(-212.13 -212.14)"/><path class="cls-2" d="M1350.9,1909.18c-23.57-62.4-47.54-111.3-50.54-117.35-13.85,2.65-468.45-81.81-582.22-32.34,0,0-70.54,54.35-41.59,149.69Z" transform="translate(-212.13 -212.14)"/><path class="cls-1" d="M1124.66,1707.68c-37.68-27.41-57.28-37.2-99.09-57.8-8.94-4.4-18.83-8.76-28.57-6.61-15.86,3.49-24.51,22.57-40.33,26.24-4,.92-8.2.8-11.95,2.41-5.9,2.53-9.26,8.72-11.8,14.62a154.87,154.87,0,0,0-12.36,69.3,71.91,71.91,0,0,0,44.22-23.79c17.59,16.94,44.58,23.39,67.92,16.24,4.33-1.33,8.8-3.11,13.25-2.27s21.16,15.71,24.68,18.6" transform="translate(-212.13 -212.14)"/><path class="cls-2" d="M1128,1702c-31.71-23-65.39-41.64-100.67-58.58-10.16-4.87-21.25-9.17-32.64-6.35-8.46,2.1-15.22,7.94-21.48,13.69-5.95,5.47-11.71,11.24-19.95,12.74-5.07.93-9.89,1.23-14.35,4.14-4.24,2.77-7.37,7-9.69,11.47-12,23-16.38,51-15.16,76.69.22,4.65,4,6.94,8.28,6.31a78.74,78.74,0,0,0,47.1-25.47h-9.24a77.63,77.63,0,0,0,63.88,20.18c5.85-.84,11.23-3.12,17-4.21a10,10,0,0,1,3.62-.22c-1-.17-.2,0,.38.25a31,31,0,0,1,4.11,2.71c5.91,4.25,11.28,9.21,16.87,13.86,6.43,5.33,15.73-3.87,9.25-9.25-5.77-4.8-11.39-9.76-17.37-14.3-2.82-2.14-5.85-4.6-9.28-5.7-5.3-1.69-10.89-.1-16,1.47-22,6.78-46.23,1.9-63.19-14-2.46-2.31-6.83-2.71-9.24,0a67.65,67.65,0,0,1-41.34,22.11l8.28,6.3a151.68,151.68,0,0,1,10.39-63.35c1.56-4,3.27-8.37,6.07-11.63,3.46-4,8.31-3.81,13.14-4.71,8.13-1.5,14.79-6.29,20.87-11.66,5.48-4.85,10.67-10.9,17.54-13.82,9.39-4,19.6,1.14,28,5.27,16.11,7.91,32.25,15.82,47.92,24.6a517.43,517.43,0,0,1,50.34,32.79C1128.18,1718.28,1134.71,1706.94,1128,1702Z" transform="translate(-212.13 -212.14)"/><polygon class="cls-3" points="1040.01 1566.45 1036.99 1590.15 483.42 1546.37 348.79 1099.07 705.89 1091.93 829.62 1550.26 1040.01 1566.45"/><path class="cls-2" d="M1245.6,1778.59q-1.51,11.85-3,23.7l6.53-6.54-55-4.35L1061.87,1781,901.93,1768.3l-138.26-10.94-45.57-3.61c-7.07-.56-14.51-1.85-21.61-1.71l-.94-.07,6.31,4.8-13.44-44.64q-16-53.36-32.11-106.7-19.48-64.74-39-129.48l-33.55-111.49q-5.53-18.37-11.06-36.75c-1.71-5.68-2.89-12-5.26-17.47l-.23-.77-6.31,8.27,35.62-.71,85-1.7,103.34-2.06,89-1.78,29.51-.59c4.51-.09,9.56.44,14-.28H918l-6.3-4.8q6.16,22.82,12.32,45.65,14.81,54.8,29.59,109.6,17.82,66,35.65,132.08,15.47,57.28,30.94,114.59c5,18.49,9.27,37.36,15,55.64l.2.77a6.75,6.75,0,0,0,6.31,4.8l71,5.46,113.28,8.72,26.09,2c8.39.65,8.35-12.43,0-13.07l-71-5.47-113.27-8.72-26.1-2,6.3,4.8q-6.15-22.83-12.32-45.65l-29.58-109.6q-17.83-66-35.66-132.08l-30.93-114.59c-5-18.49-9.28-37.36-15-55.64l-.21-.77a6.66,6.66,0,0,0-6.31-4.8l-35.62.71-85,1.7L694,1302l-89,1.77c-14.47.29-29.07,0-43.53.87l-.62,0c-4.15.08-7.56,4.12-6.3,8.27q6.71,22.32,13.43,44.64,16.07,53.36,32.12,106.7l39,129.49q16.77,55.74,33.56,111.49c5.43,18,10.32,36.35,16.32,54.22l.23.77a6.76,6.76,0,0,0,6.3,4.8l55.05,4.35,132.2,10.46,160,12.65L1181,1803.44l45.57,3.61c7.16.57,14.42,1.55,21.61,1.71l.93.07c3.84.31,6.13-3.27,6.54-6.54q1.52-11.85,3-23.7c.45-3.53-3.33-6.5-6.54-6.53C1248.24,1772,1246.05,1775.11,1245.6,1778.59Z" transform="translate(-212.13 -212.14)"/><path class="cls-4" d="M800.49,1534.1c3.75,5.62,6.42,11.42,7.25,16.4,2.1,12.43-1.91,34.17-18.59,34.11-22.2-.08-37.13-37.28-35-55.51C758.17,1494.87,786.64,1513.3,800.49,1534.1Z" transform="translate(-212.13 -212.14)"/><polygon class="cls-2" points="1319.28 1697.04 1286.21 1514.96 1008.96 1283.97 1084.4 1697.04 1319.28 1697.04"/><polygon class="cls-2" points="1085.73 1697.04 1010.9 1287.29 1285.01 1515.66 1317.95 1697.04 1320.6 1697.04 1287.5 1514.72 1287.41 1514.26 1009.79 1282.97 1007.02 1280.66 1083.08 1697.04 1085.73 1697.04"/><path class="cls-3" d="M1524.73,1794.33c5.24,38.21,9.67,76.52,13.91,114.85h13.07c-8.15-73.84-16.86-147.75-30.86-220.73-7.55-39.33-16.67-78.45-29.33-116.47-2.64-7.94-15.27-4.54-12.6,3.48C1502.48,1646.24,1514.64,1720.61,1524.73,1794.33Z" transform="translate(-212.13 -212.14)"/><path class="cls-3" d="M1284.66,1909.18H1298c-1.13-5.55-2.29-11.11-3.42-16.67q-8.65-42.46-17-85c-1.61-8.26-14.22-4.76-12.61,3.47Q1274.55,1860.14,1284.66,1909.18Z" transform="translate(-212.13 -212.14)"/><path class="cls-3" d="M1348.33,1770.24c-19-6.8-37-16.16-55.46-24.36-7.84-3.48-49.16-25.22-49.84-7.41a13.79,13.79,0,0,0,1.69,6.42c5.27,10.77,15.49,17.5,22.48,26.95,11.28,15.26-.62,18.89-16.1,17.47-26.42-2.42-51.85-13.26-78.38-13-2.37,0-4.89.19-6.79,1.6-2.49,1.85-3.17,5.43-2.43,8.45.67,2.68,7.66,10.21,5.9,12.61-2.81,3.83-8.32-3.14-12-.06-2,1.67-2.8,5.07-1,6.86,9.67,9.32,18.26,18.49,28.78,27.09,2.43,2,5.13,4.77,4.25,7.79-1.73,5.87-15.81-.46-16.93,9.11-1.07,9,16.8,12.59,22.82,14.51a297.23,297.23,0,0,0,68.71,13.2c71.45,5.22,137.44-20.49,203.33-44.62,16.42-6,32.62-12.57,49-18.61q33.16-12.23,67.31-21.6c19.49-5.35,42.67-12.85,47.41-37.35a44,44,0,0,0-2.48-24.07c-8-20.69-12.93-42.69-23.26-62.49-5.53-10.61-9.28-20.39-20.07-11.14-11.37,9.75-22.54,19.72-34.09,29.26-25.26,20.84-51.56,40.53-79.57,57.54-16.47,10-32.61,20.8-50.31,28.59-19.18,8.43-31.81,7.91-51.64,3.53A176.32,176.32,0,0,1,1348.33,1770.24Z" transform="translate(-212.13 -212.14)"/><path class="cls-2" d="M1350.07,1763.93c-20.42-7.39-40-17.16-59.68-26.41-11.73-5.53-25.46-12.7-38.77-12.52-6.23.09-12.35,2.77-14.4,9.09-3.19,9.82,4.66,19.81,10.85,26.61,3.6,4,7.57,7.6,11.12,11.61,1.38,1.57,6.68,7.34,6,9.42.17-.51.67-.59-.39.2s-3.68.93-5.11,1a69.87,69.87,0,0,1-15.81-1.09c-12.56-1.92-24.84-5.31-37.26-8-11.73-2.5-24.7-5.26-36.75-4-10.81,1.15-16.39,12.2-11.06,21.67.87,1.55,2,3,2.92,4.46a15.75,15.75,0,0,0,1.58,2.75c.15.15,5.49-3.79,3.55-5.39-2.87-2.36-8.88-2.3-11.91-.68a12,12,0,0,0-5.63,13.15c1.42,5.27,7.81,9.64,11.55,13.33,4.44,4.39,8.89,8.75,13.54,12.91,2.21,2,4.54,3.83,6.76,5.8l2.17,2.3c-1-.06,1.17-4.33,1.58-3.44-.11-.22-8.23,1-8.88,1.17a12.89,12.89,0,0,0-8.62,6.55c-4.07,8,1.21,15.77,8.24,19.64,6.68,3.67,14.39,5.34,21.63,7.54a294,294,0,0,0,38.74,9,288.88,288.88,0,0,0,77.58,2.3c50.92-5.53,99.2-23.13,147-40.68,25.24-9.27,50.17-19.45,75.62-28.17q19-6.5,38.27-12.08c9.58-2.77,19.35-5.06,28.63-8.77,17.83-7.13,32.39-19.74,34.92-39.74,1.63-12.91-3.23-24-7.28-35.93s-7.62-24.09-12.29-35.84c-2.31-5.8-4.86-11.48-7.72-17-2.2-4.29-4.29-8.91-7.6-12.5-8.28-9-17.8-3.23-25.35,3.27-20.24,17.46-40.41,34.92-61.84,50.94-20.71,15.49-42.44,29.23-64.47,42.74-19.77,12.11-41.15,25.82-65.28,23.56-12.31-1.15-24.52-4.71-36.13-8.81-8-2.8-11.38,9.83-3.48,12.61,20.48,7.22,43.62,13.1,65.11,6.94,22.61-6.48,42.7-20.87,62.55-33a652.48,652.48,0,0,0,60-41.64q14.85-11.52,29.19-23.66,6.7-5.7,13.32-11.48c4.85-4.21,9.72-9.53,15.24-12.82,1.45-.86.58-.56,1.2-.21,1.42.8,2.45,3.36,3.21,4.73,2.67,4.78,5.14,9.75,7.36,14.75,4.88,11,8.4,22.63,12.15,34.08,3.57,10.92,9.68,22.39,9.49,34.08a31.9,31.9,0,0,1-10.63,23.41c-13,11.73-33.07,14.53-49.23,19.32-24.57,7.3-48.66,15.92-72.56,25.14-45.21,17.44-91,35.46-138.26,46.49-48.06,11.23-97,11.89-144.81-1-8-2.17-16.52-4.27-24.29-7.31a21.45,21.45,0,0,1-6.56-3.94l.07-.12c.52,1-2.12.56,0,.29l1.27-.23c6.55-1.19,14.34-.78,15.61-9.29.79-5.33-2.26-9.53-6.09-12.87-4.54-4-9.09-7.87-13.44-12q-3.2-3.09-6.34-6.21c-1.91-1.88-4.1-5.06-6.39-6.3l-.66-.64q-1.65-2.24-3.89,1.5l1.88.6a14.19,14.19,0,0,0,6.22,1.54,9,9,0,0,0,8.78-7.35c.67-4-1.58-7.63-3.66-10.81-1-1.61-3.87-4.54-2.19-5.48s6.15-.18,7.93-.1c3.3.15,6.6.44,9.88.87,11.68,1.53,23.12,4.57,34.6,7.17,11.05,2.5,22.55,5.1,33.93,5.15,7.12,0,16.12-1.14,20-8,4.65-8.09-1.58-17.23-6.66-23.36-6.08-7.34-14.39-13.25-18.85-21.83a12,12,0,0,1-1.44-4.81l-.34.31.88-.32a25.24,25.24,0,0,1,3.79,0c5.93.59,12.16,3,17.77,5.28,13.93,5.56,27.46,12.46,41,18.77,11.1,5.16,22.3,10.14,33.81,14.3C1354.52,1779.41,1357.93,1766.78,1350.07,1763.93Z" transform="translate(-212.13 -212.14)"/><path class="cls-2" d="M1269.21,1821.71a301.44,301.44,0,0,1-92.93-28.13c-7.53-3.68-14.17,7.59-6.6,11.3a320.78,320.78,0,0,0,99.53,29.9c3.53.47,6.5-3.34,6.54-6.54C1275.78,1824.33,1272.69,1822.16,1269.21,1821.71Z" transform="translate(-212.13 -212.14)"/><path class="cls-3" d="M1532.42,1370.94s65.72,187,42.42,283l59.55,148.4s139.53-72.28,117.5-262.77S1656.72,1199.39,1582,1117.8,1532.42,1370.94,1532.42,1370.94Z" transform="translate(-212.13 -212.14)"/><path class="cls-3" d="M813.6,1825.67c71.8,10.12,142.2,29.24,210.55,53.2q39.91,14,79,30.31H1136c-64.56-28.44-131.07-52.76-199.18-71.17a987.8,987.8,0,0,0-119.75-25c-3.52-.5-7,.86-8,4.57C808.16,1820.68,810.11,1825.18,813.6,1825.67Z" transform="translate(-212.13 -212.14)"/><path class="cls-2" d="M1583.93,1663.63c18-60.8,8.26-125.43-9.69-185-9.33-31-20.83-61.21-31.81-91.61-5.58-15.47-10.73-31.07-16-46.65-3.32-9.78-7.28-19.53-12.89-28.24-1.61-2.5-3.4-4.86-5-7.36a31.25,31.25,0,0,1-1.93-3.44c.53,1.13-.59-1.89-.77-2.65a42.23,42.23,0,0,1-.46-10.29c.3-7.27,1.24-14.52,2.2-21.73.47-3.53-3.34-6.5-6.54-6.54-3.92,0-6.08,3.06-6.54,6.54-2,15.27-5.51,32.51,3.68,46.1a124.11,124.11,0,0,1,10.85,18.59c6.06,13.53,9.86,28.14,14.76,42.12,20.91,59.68,46.34,119,54.23,182.21,4.36,34.94,3.36,70.55-6.67,104.47C1568.93,1668.24,1581.55,1671.69,1583.93,1663.63Z" transform="translate(-212.13 -212.14)"/><path class="cls-2" d="M1188.66,1844.3a119,119,0,0,0,61.95,13.39,6.68,6.68,0,0,0,6.53-6.54c0-3.37-3-6.75-6.53-6.53a106.14,106.14,0,0,1-55.35-11.61C1187.81,1829.13,1181.18,1840.41,1188.66,1844.3Z" transform="translate(-212.13 -212.14)"/><path class="cls-2" d="M1289.39,812.37s3.51,81.43,104.28,124l14.77,186.18s196.1-108.22,50.78-363.09c0,0-30.46-64.36-93.71-66.44S1289.57,807.18,1289.39,812.37Z" transform="translate(-212.13 -212.14)"/><path class="cls-2" d="M1398.94,738.48c-1.5-2.94,34-56.24,79.14-43.48s70.76,52,49.32,100.77c-19.46,44.26-87.4,54.8-112.12,11S1398.94,738.48,1398.94,738.48Z" transform="translate(-212.13 -212.14)"/><path class="cls-2" d="M1304.4,831.06s-68.61,19.72-71.83,126.63c0,0-47.39-37.14-46.74-109.91s55.32-152.7,145.37-130.9Z" transform="translate(-212.13 -212.14)"/><path class="cls-2" d="M1442.93,777.08c-1.07-3.11-28.78-104.34,44.59-149,0,0-116.42,2.61-78.7,127Z" transform="translate(-212.13 -212.14)"/><path class="cls-2" d="M1221.52,1182.6c63.52-9.67,127.75-13.91,191.38-2.75a563.09,563.09,0,0,1,56.34,13.09c8.11,2.3,11.57-10.32,3.48-12.62-32.59-9.24-65.88-15.86-99.65-18.74-31.85-2.72-63.86-2-95.66.94-19.87,1.83-39.65,4.47-59.37,7.47-3.52.54-5.39,4.92-4.56,8C1214.46,1181.78,1218.05,1183.13,1221.52,1182.6Z" transform="translate(-212.13 -212.14)"/></svg>